<svg xmlns="http://www.w3.org/2000/svg" xmlns:xlink="http://www.w3.org/1999/xlink" version="1.1" width="1000" height="1000" viewBox="0 0 1000 1000" xml:space="preserve">
<desc>Created with Fabric.js 3.5.0</desc>
<defs>
</defs>
<rect x="0" y="0" width="100%" height="100%" fill="#ffffff"/>
<g transform="matrix(1.856 0 0 1.856 499.9889 499.9889)" id="830718">
<g style="" vector-effect="non-scaling-stroke">
		<g transform="matrix(1 0 0 1 0.15 213.4)" id="Capa_1">
<path style="stroke: none; stroke-width: 1; stroke-dasharray: none; stroke-linecap: butt; stroke-dashoffset: 0; stroke-linejoin: miter; stroke-miterlimit: 4; is-custom-font: none; font-file-url: none; fill: rgb(178,202,226); fill-rule: nonzero; opacity: 1;" transform=" translate(-245.05, -458.3)" d="M 245.05 489.8 c 34.6 0 63 -28 63 -63 h -126 C 182.05 461.8 210.45 489.8 245.05 489.8 z" stroke-linecap="round"/>
</g>
		<g transform="matrix(1 0 0 1 0 -41.35)" id="Capa_1">
<path style="stroke: none; stroke-width: 1; stroke-dasharray: none; stroke-linecap: butt; stroke-dashoffset: 0; stroke-linejoin: miter; stroke-miterlimit: 4; is-custom-font: none; font-file-url: none; fill: rgb(178,202,226); fill-rule: nonzero; opacity: 1;" transform=" translate(-244.9, -203.55)" d="M 369.05 124 c 0 -68.4 -55.6 -124 -124 -124 l 0 0 c -68.4 0 -124 55.6 -124 124 v 88.3 c 0 80.5 -31.9 137.6 -89 194.8 h 425.7 c -56.8 -56.8 -89 -114.3 -89 -194.8 V 124 H 369.05 z" stroke-linecap="round"/>
</g>
</g>
</g>
</svg>