<?xml version="1.0" encoding="UTF-8" standalone="no"?>
<!-- Generator: Adobe Illustrator 16.0.0, SVG Export Plug-In . SVG Version: 6.00 Build 0)  -->

<svg
   version="1.1"
   id="Capa_1"
   x="0px"
   y="0px"
   width="351.066px"
   height="351.066px"
   viewBox="0 0 351.066 351.066"
   style="enable-background:new 0 0 351.066 351.066;"
   xml:space="preserve"
   sodipodi:docname="calendar-secondary.svg"
   inkscape:version="1.2 (dc2aedaf03, 2022-05-15)"
   xmlns:inkscape="http://www.inkscape.org/namespaces/inkscape"
   xmlns:sodipodi="http://sodipodi.sourceforge.net/DTD/sodipodi-0.dtd"
   xmlns="http://www.w3.org/2000/svg"
   xmlns:svg="http://www.w3.org/2000/svg"><defs
   id="defs41" /><sodipodi:namedview
   id="namedview39"
   pagecolor="#ffffff"
   bordercolor="#000000"
   borderopacity="0.25"
   inkscape:showpageshadow="2"
   inkscape:pageopacity="0.0"
   inkscape:pagecheckerboard="0"
   inkscape:deskcolor="#d1d1d1"
   showgrid="false"
   inkscape:zoom="2.3186523"
   inkscape:cx="175.533"
   inkscape:cy="175.74865"
   inkscape:window-width="1920"
   inkscape:window-height="1001"
   inkscape:window-x="-9"
   inkscape:window-y="-9"
   inkscape:window-maximized="1"
   inkscape:current-layer="Capa_1" />
<g
   id="g6"
   style="fill:#b2cae2;fill-opacity:1">
	<g
   id="g4"
   style="fill:#b2cae2;fill-opacity:1">
		<path
   d="M346.244,55.026H313.2V29.771c0-13.785-11.215-25-25-25s-25,11.215-25,25v25.256H87.866V29.771c0-13.785-11.215-25-25-25    c-13.785,0-25,11.215-25,25v25.256H4.822C2.163,55.026,0,57.189,0,59.849v281.625c0,2.658,2.164,4.822,4.822,4.822h341.422    c2.659,0,4.822-2.164,4.822-4.822V59.849C351.066,57.189,348.903,55.026,346.244,55.026z M278.2,32.771c0-5.523,4.477-10,10-10    c5.522,0,10,4.477,10,10v25.256c0,5.523-4.478,10-10,10c-5.523,0-10-4.477-10-10V32.771z M52.866,32.771c0-5.523,4.477-10,10-10    c5.523,0,10,4.477,10,10v25.256c0,5.523-4.477,10-10,10c-5.523,0-10-4.477-10-10V32.771z M106.14,270.098    c0,6.615-5.362,11.978-11.977,11.978h-37.26c-6.615,0-11.977-5.36-11.977-11.978v-37.261c0-6.615,5.362-11.979,11.977-11.979    h37.261c6.614,0,11.977,5.362,11.977,11.979L106.14,270.098L106.14,270.098z M106.14,170.098c0,6.614-5.362,11.978-11.977,11.978    h-37.26c-6.615,0-11.977-5.36-11.977-11.978v-37.261c0-6.615,5.362-11.978,11.977-11.978h37.261    c6.614,0,11.977,5.362,11.977,11.978L106.14,170.098L106.14,170.098z M206.141,270.098c0,6.615-5.361,11.978-11.978,11.978h-37.26    c-6.615,0-11.977-5.36-11.977-11.978v-37.261c0-6.615,5.362-11.979,11.977-11.979h37.261c6.614,0,11.977,5.362,11.977,11.979    V270.098L206.141,270.098z M206.141,170.098c0,6.614-5.361,11.978-11.978,11.978h-37.26c-6.615,0-11.977-5.36-11.977-11.978    v-37.261c0-6.615,5.362-11.978,11.977-11.978h37.261c6.614,0,11.977,5.362,11.977,11.978V170.098L206.141,170.098z     M306.141,270.098c0,6.615-5.361,11.978-11.978,11.978h-37.26c-6.615,0-11.979-5.36-11.979-11.978v-37.261    c0-6.615,5.362-11.979,11.979-11.979h37.261c6.614,0,11.978,5.362,11.978,11.979L306.141,270.098L306.141,270.098z     M306.141,170.098c0,6.614-5.361,11.978-11.978,11.978h-37.26c-6.615,0-11.979-5.36-11.979-11.978v-37.261    c0-6.615,5.362-11.978,11.979-11.978h37.261c6.614,0,11.978,5.362,11.978,11.978L306.141,170.098L306.141,170.098z"
   id="path2"
   style="fill:#b2cae2;fill-opacity:1" />
	</g>
</g>
<g
   id="g8">
</g>
<g
   id="g10">
</g>
<g
   id="g12">
</g>
<g
   id="g14">
</g>
<g
   id="g16">
</g>
<g
   id="g18">
</g>
<g
   id="g20">
</g>
<g
   id="g22">
</g>
<g
   id="g24">
</g>
<g
   id="g26">
</g>
<g
   id="g28">
</g>
<g
   id="g30">
</g>
<g
   id="g32">
</g>
<g
   id="g34">
</g>
<g
   id="g36">
</g>
</svg>
