<?xml version="1.0" encoding="iso-8859-1"?>
<!-- Generator: Adobe Illustrator 16.0.0, SVG Export Plug-In . SVG Version: 6.00 Build 0)  -->
<!DOCTYPE svg PUBLIC "-//W3C//DTD SVG 1.1//EN" "http://www.w3.org/Graphics/SVG/1.1/DTD/svg11.dtd">
<svg version="1.1" id="Capa_1" xmlns="http://www.w3.org/2000/svg" xmlns:xlink="http://www.w3.org/1999/xlink" x="0px" y="0px"
	 width="351.066px" height="351.066px" viewBox="0 0 351.066 351.066" style="enable-background:new 0 0 351.066 351.066;"
	 xml:space="preserve">
<g fill="#b2cae2">
	<g>
		<path d="M346.244,55.026H313.2V29.771c0-13.785-11.215-25-25-25s-25,11.215-25,25v25.256H87.866V29.771c0-13.785-11.215-25-25-25
			c-13.785,0-25,11.215-25,25v25.256H4.822C2.163,55.026,0,57.189,0,59.849v281.625c0,2.658,2.164,4.822,4.822,4.822h341.422
			c2.659,0,4.822-2.164,4.822-4.822V59.849C351.066,57.189,348.903,55.026,346.244,55.026z M278.2,32.771c0-5.523,4.477-10,10-10
			c5.522,0,10,4.477,10,10v25.256c0,5.523-4.478,10-10,10c-5.523,0-10-4.477-10-10V32.771z M52.866,32.771c0-5.523,4.477-10,10-10
			c5.523,0,10,4.477,10,10v25.256c0,5.523-4.477,10-10,10c-5.523,0-10-4.477-10-10V32.771z M106.14,270.098
			c0,6.615-5.362,11.978-11.977,11.978h-37.26c-6.615,0-11.977-5.36-11.977-11.978v-37.261c0-6.615,5.362-11.979,11.977-11.979
			h37.261c6.614,0,11.977,5.362,11.977,11.979L106.14,270.098L106.14,270.098z M106.14,170.098c0,6.614-5.362,11.978-11.977,11.978
			h-37.26c-6.615,0-11.977-5.36-11.977-11.978v-37.261c0-6.615,5.362-11.978,11.977-11.978h37.261
			c6.614,0,11.977,5.362,11.977,11.978L106.14,170.098L106.14,170.098z M206.141,270.098c0,6.615-5.361,11.978-11.978,11.978h-37.26
			c-6.615,0-11.977-5.36-11.977-11.978v-37.261c0-6.615,5.362-11.979,11.977-11.979h37.261c6.614,0,11.977,5.362,11.977,11.979
			V270.098L206.141,270.098z M206.141,170.098c0,6.614-5.361,11.978-11.978,11.978h-37.26c-6.615,0-11.977-5.36-11.977-11.978
			v-37.261c0-6.615,5.362-11.978,11.977-11.978h37.261c6.614,0,11.977,5.362,11.977,11.978V170.098L206.141,170.098z
			 M306.141,270.098c0,6.615-5.361,11.978-11.978,11.978h-37.26c-6.615,0-11.979-5.36-11.979-11.978v-37.261
			c0-6.615,5.362-11.979,11.979-11.979h37.261c6.614,0,11.978,5.362,11.978,11.979L306.141,270.098L306.141,270.098z
			 M306.141,170.098c0,6.614-5.361,11.978-11.978,11.978h-37.26c-6.615,0-11.979-5.36-11.979-11.978v-37.261
			c0-6.615,5.362-11.978,11.979-11.978h37.261c6.614,0,11.978,5.362,11.978,11.978L306.141,170.098L306.141,170.098z"/>
	</g>
</g>
<g>
</g>
<g>
</g>
<g>
</g>
<g>
</g>
<g>
</g>
<g>
</g>
<g>
</g>
<g>
</g>
<g>
</g>
<g>
</g>
<g>
</g>
<g>
</g>
<g>
</g>
<g>
</g>
<g>
</g>
</svg>
