<?xml version="1.0" encoding="iso-8859-1"?>
<!-- Generator: Adobe Illustrator 19.0.0, SVG Export Plug-In . SVG Version: 6.00 Build 0)  -->
<svg version="1.1" id="Capa_1" xmlns="http://www.w3.org/2000/svg" xmlns:xlink="http://www.w3.org/1999/xlink" x="0px" y="0px"
	 viewBox="0 0 490 490" style="enable-background:new 0 0 490 490;" xml:space="preserve">
<g>
	<g>
	<g fill="#b2cae2">
		<path d="M153.601,244.2c5.4,0,10.1-4.7,10.1-10.1v-133c0-44.7,36.2-80.9,80.9-80.9s80.9,36.2,80.9,80.9v133
			c0,5.4,4.7,10.1,10.1,10.1s10.1-4.7,10.1-10.1v-133c0-55.6-45.5-101.1-101.1-101.1s-101.1,45.5-101.1,101.1v133
			C143.501,239.6,148.201,244.2,153.601,244.2z"/>
	</g>
	<g fill="#b2cae2">
		<path d="M437.1,446.8l-28.8-301.3h-42.4v97.8c0,16.9-13.7,30.5-30.5,30.5l0,0c-16.9,0-30.5-13.7-30.5-30.5v-97.8h-120.9v97.4
			c0,16.5-13,30.5-29.5,30.9c-17.1,0.5-31.2-13.3-31.2-30.3v-98H81.7L52.9,446.8C50.6,470.1,68.8,490,91.8,490h306
			C421.1,490,439.4,470.1,437.1,446.8z M245.001,462c-47.8,0-86.7-38.9-86.7-86.7s38.9-86.7,86.7-86.7s86.7,38.9,86.7,86.7
			S292.8,462,245.001,462z"/>
	</g>
	<g fill="#b2cae2">	
		<path d="M245.001,308.8c-36.5,0-66.5,29.9-66.5,66.5c0,36.5,29.9,66.5,66.5,66.5c36.5,0,66.5-29.9,66.5-66.5
			S281.5,308.8,245.001,308.8z M250.8,409.4v4.1c0,3.2-2.6,5.8-5.8,5.8s-5.8-2.6-5.8-5.8v-4.1c-3.4-1-6.6-2.9-9-5.5
			c-2.2-2.3-2.1-6,0.3-8.2c2.3-2.2,6-2.1,8.2,0.3c1.5,1.6,3.6,2.6,5.8,2.7c0.2,0,0.4,0,0.6,0c0.2,0,0.4,0,0.6,0
			c4.5-0.3,8.1-4.1,8.1-8.7c0-4.8-3.9-8.7-8.7-8.7c-0.2,0-0.4,0-0.6,0c-11-0.3-19.8-9.3-19.8-20.4c0-9.2,6.2-17,14.6-19.5v-4.1
			c0-3.2,2.6-5.8,5.8-5.8c3.2,0,5.8,2.6,5.8,5.8v4.1c3.4,1,6.6,2.9,9,5.6c2.2,2.3,2.1,6-0.3,8.2c-2.3,2.2-6,2.1-8.2-0.3
			c-1.5-1.6-3.6-2.6-5.8-2.7c-0.2,0-0.4,0-0.6,0c-0.2,0-0.4,0-0.6,0c-4.5,0.3-8.1,4.1-8.1,8.7c0,4.8,3.9,8.7,8.7,8.7
			c0.2,0,0.4,0,0.6,0c11,0.3,19.8,9.3,19.8,20.4C265.4,399,259.201,406.9,250.8,409.4z"/>
	</g>
	</g>
</g>
<g>
</g>
<g>
</g>
<g>
</g>
<g>
</g>
<g>
</g>
<g>
</g>
<g>
</g>
<g>
</g>
<g>
</g>
<g>
</g>
<g>
</g>
<g>
</g>
<g>
</g>
<g>
</g>
<g>
</g>
</svg>
